<?xml version="1.0" standalone="no"?>
<!DOCTYPE svg PUBLIC "-//W3C//DTD SVG 20010904//EN"
 "http://www.w3.org/TR/2001/REC-SVG-20010904/DTD/svg10.dtd">
<svg version="1.0" xmlns="http://www.w3.org/2000/svg"
 width="700.000000pt" height="700.000000pt" viewBox="0 0 700.000000 700.000000"
 preserveAspectRatio="xMidYMid meet">
<metadata>
Created by potrace 1.11, written by Peter Selinger 2001-2013
</metadata>
<g transform="translate(0.000000,700.000000) scale(0.100000,-0.100000)"
fill="#000000" stroke="none">
<path d="M3005 6993 c-16 -2 -79 -8 -140 -14 -60 -6 -117 -12 -125 -14 -127
-22 -174 -31 -280 -57 -572 -137 -1093 -424 -1500 -825 -69 -68 -140 -143
-157 -166 -18 -24 -44 -57 -58 -73 -81 -91 -234 -349 -287 -484 -33 -82 -78
-246 -86 -314 -9 -66 -9 -270 0 -321 19 -115 25 -132 80 -255 96 -215 337
-423 646 -559 157 -69 405 -150 554 -180 194 -40 359 -69 438 -78 50 -5 74
-17 66 -33 -2 -3 -7 -48 -10 -100 -4 -52 -9 -115 -11 -140 -2 -25 -7 -74 -10
-110 -4 -36 -8 -94 -10 -130 -3 -36 -7 -85 -10 -110 -3 -25 -7 -79 -10 -120
-4 -65 -9 -131 -20 -245 -2 -16 -6 -75 -10 -130 -4 -54 -8 -106 -10 -115 -2
-8 -6 -58 -10 -110 -3 -52 -8 -111 -10 -130 -2 -19 -6 -78 -10 -130 -3 -52 -8
-106 -10 -120 -10 -68 -19 -228 -19 -340 2 -422 226 -808 600 -1033 69 -42
208 -103 268 -118 171 -43 211 -48 376 -45 91 2 174 6 185 9 11 3 40 10 65 16
82 19 195 59 263 94 l68 35 26 -52 c118 -233 319 -398 568 -467 84 -23 270
-32 365 -17 208 31 431 167 557 338 146 198 196 398 170 680 -8 76 -13 146
-22 255 -11 139 -16 203 -21 255 -3 30 -7 84 -10 120 -2 36 -6 88 -9 115 -2
28 -7 86 -10 130 -3 44 -8 94 -10 110 -2 17 -7 76 -10 133 -6 82 -5 102 6 103
153 11 447 82 624 151 546 213 729 640 491 1144 -120 252 -369 523 -647 704
l-36 24 55 80 c118 173 166 339 161 551 -2 55 -7 120 -11 145 -5 25 -11 61
-14 80 -16 100 -110 330 -193 474 -33 58 -120 185 -160 236 -488 610 -1275
1040 -2081 1135 -30 4 -68 8 -85 11 -36 5 -478 12 -520 7z"/>
</g>
</svg>
